<svg width="64" height="64" viewBox="0 0 64 64" fill="none" xmlns="http://www.w3.org/2000/svg">
  <rect width="64" height="64" rx="16" fill="#fde8ef"/>
  <!-- ears -->
  <ellipse cx="24" cy="20" rx="6.5" ry="14" fill="#ffffff" stroke="#f48fb1" stroke-width="2"/>
  <ellipse cx="40" cy="20" rx="6.5" ry="14" fill="#ffffff" stroke="#f48fb1" stroke-width="2"/>
  <ellipse cx="24" cy="20" rx="2.6" ry="8.5" fill="#f9b8cd"/>
  <ellipse cx="40" cy="20" rx="2.6" ry="8.5" fill="#f9b8cd"/>
  <!-- head -->
  <circle cx="32" cy="40" r="16" fill="#ffffff" stroke="#f48fb1" stroke-width="2"/>
  <!-- cheeks -->
  <circle cx="23" cy="44" r="3.2" fill="#f9b8cd" opacity="0.75"/>
  <circle cx="41" cy="44" r="3.2" fill="#f9b8cd" opacity="0.75"/>
  <!-- eyes -->
  <circle cx="26.5" cy="39" r="2.4" fill="#4a4453"/>
  <circle cx="37.5" cy="39" r="2.4" fill="#4a4453"/>
  <circle cx="27.3" cy="38.2" r="0.8" fill="#ffffff"/>
  <circle cx="38.3" cy="38.2" r="0.8" fill="#ffffff"/>
  <!-- nose -->
  <path d="M32 43.2 l-2 -1.8 a2.6 2.6 0 0 1 4 0 z" fill="#ec6a96"/>
  <!-- mouth -->
  <path d="M32 44 v2.2 M32 46.2 c-1.4 1.6 -3.6 1.2 -4.4 -0.2 M32 46.2 c1.4 1.6 3.6 1.2 4.4 -0.2"
        stroke="#d94c7d" stroke-width="1.4" stroke-linecap="round" fill="none"/>
</svg>
